<mxfile host="app.diagrams.net" agent="Mozilla/5.0 (Macintosh; Intel Mac OS X 10_15_7) AppleWebKit/537.36 (KHTML, like Gecko) Chrome/139.0.0.0 Safari/537.36" version="28.1.2">
  <diagram name="Page-1" id="h8dtk-8nHZXx9WsFh8E4">
    <mxGraphModel dx="1426" dy="920" grid="1" gridSize="10" guides="1" tooltips="1" connect="1" arrows="1" fold="1" page="1" pageScale="1" pageWidth="827" pageHeight="1169" math="0" shadow="0">
      <root>
        <mxCell id="0" />
        <mxCell id="1" parent="0" />
        <mxCell id="G5gJPwNIRfqYZjKYW6PN-3" value="" style="edgeStyle=orthogonalEdgeStyle;rounded=0;orthogonalLoop=1;jettySize=auto;html=1;" edge="1" parent="1" source="G5gJPwNIRfqYZjKYW6PN-1" target="G5gJPwNIRfqYZjKYW6PN-2">
          <mxGeometry relative="1" as="geometry" />
        </mxCell>
        <mxCell id="G5gJPwNIRfqYZjKYW6PN-1" value="Frontend&lt;div&gt;(Message)&lt;/div&gt;" style="rounded=0;whiteSpace=wrap;html=1;" vertex="1" parent="1">
          <mxGeometry x="160" y="80" width="120" height="60" as="geometry" />
        </mxCell>
        <mxCell id="G5gJPwNIRfqYZjKYW6PN-5" value="" style="edgeStyle=orthogonalEdgeStyle;rounded=0;orthogonalLoop=1;jettySize=auto;html=1;" edge="1" parent="1" source="G5gJPwNIRfqYZjKYW6PN-2" target="G5gJPwNIRfqYZjKYW6PN-4">
          <mxGeometry relative="1" as="geometry" />
        </mxCell>
        <mxCell id="G5gJPwNIRfqYZjKYW6PN-2" value="Role: Director&lt;div&gt;Use: Number of character, location, message&lt;/div&gt;" style="whiteSpace=wrap;html=1;rounded=0;" vertex="1" parent="1">
          <mxGeometry x="160" y="220" width="120" height="60" as="geometry" />
        </mxCell>
        <mxCell id="G5gJPwNIRfqYZjKYW6PN-7" value="" style="edgeStyle=orthogonalEdgeStyle;rounded=0;orthogonalLoop=1;jettySize=auto;html=1;" edge="1" parent="1" source="G5gJPwNIRfqYZjKYW6PN-4" target="G5gJPwNIRfqYZjKYW6PN-6">
          <mxGeometry relative="1" as="geometry" />
        </mxCell>
        <mxCell id="G5gJPwNIRfqYZjKYW6PN-4" value="Role: Content Writer&lt;div&gt;Use: Story&lt;/div&gt;" style="whiteSpace=wrap;html=1;rounded=0;" vertex="1" parent="1">
          <mxGeometry x="360" y="220" width="120" height="60" as="geometry" />
        </mxCell>
        <mxCell id="G5gJPwNIRfqYZjKYW6PN-9" value="" style="edgeStyle=orthogonalEdgeStyle;rounded=0;orthogonalLoop=1;jettySize=auto;html=1;" edge="1" parent="1" source="G5gJPwNIRfqYZjKYW6PN-6" target="G5gJPwNIRfqYZjKYW6PN-8">
          <mxGeometry relative="1" as="geometry" />
        </mxCell>
        <mxCell id="G5gJPwNIRfqYZjKYW6PN-6" value="Role: Writer&lt;div&gt;Use: Scripts&lt;/div&gt;" style="whiteSpace=wrap;html=1;rounded=0;" vertex="1" parent="1">
          <mxGeometry x="560" y="220" width="120" height="60" as="geometry" />
        </mxCell>
        <mxCell id="G5gJPwNIRfqYZjKYW6PN-11" value="" style="edgeStyle=orthogonalEdgeStyle;rounded=0;orthogonalLoop=1;jettySize=auto;html=1;" edge="1" parent="1" source="G5gJPwNIRfqYZjKYW6PN-8" target="G5gJPwNIRfqYZjKYW6PN-10">
          <mxGeometry relative="1" as="geometry" />
        </mxCell>
        <mxCell id="G5gJPwNIRfqYZjKYW6PN-8" value="Role: Producer&lt;div&gt;Use: Scenes and flow(total cuts)&lt;/div&gt;" style="whiteSpace=wrap;html=1;rounded=0;" vertex="1" parent="1">
          <mxGeometry x="560" y="360" width="120" height="60" as="geometry" />
        </mxCell>
        <mxCell id="G5gJPwNIRfqYZjKYW6PN-13" value="" style="edgeStyle=orthogonalEdgeStyle;rounded=0;orthogonalLoop=1;jettySize=auto;html=1;" edge="1" parent="1" source="G5gJPwNIRfqYZjKYW6PN-10" target="G5gJPwNIRfqYZjKYW6PN-12">
          <mxGeometry relative="1" as="geometry" />
        </mxCell>
        <mxCell id="G5gJPwNIRfqYZjKYW6PN-10" value="Role: Actors&lt;div&gt;Use: Video generation =&lt;/div&gt;" style="whiteSpace=wrap;html=1;rounded=0;" vertex="1" parent="1">
          <mxGeometry x="360" y="360" width="120" height="60" as="geometry" />
        </mxCell>
        <mxCell id="G5gJPwNIRfqYZjKYW6PN-15" value="" style="edgeStyle=orthogonalEdgeStyle;rounded=0;orthogonalLoop=1;jettySize=auto;html=1;" edge="1" parent="1" source="G5gJPwNIRfqYZjKYW6PN-12" target="G5gJPwNIRfqYZjKYW6PN-14">
          <mxGeometry relative="1" as="geometry" />
        </mxCell>
        <mxCell id="G5gJPwNIRfqYZjKYW6PN-12" value="Role: Editor&lt;div&gt;Use: Edit the video and make a movie.&lt;/div&gt;" style="whiteSpace=wrap;html=1;rounded=0;" vertex="1" parent="1">
          <mxGeometry x="160" y="360" width="120" height="60" as="geometry" />
        </mxCell>
        <mxCell id="G5gJPwNIRfqYZjKYW6PN-17" value="" style="edgeStyle=orthogonalEdgeStyle;rounded=0;orthogonalLoop=1;jettySize=auto;html=1;" edge="1" parent="1" source="G5gJPwNIRfqYZjKYW6PN-14" target="G5gJPwNIRfqYZjKYW6PN-16">
          <mxGeometry relative="1" as="geometry" />
        </mxCell>
        <mxCell id="G5gJPwNIRfqYZjKYW6PN-14" value="Store in S3" style="whiteSpace=wrap;html=1;rounded=0;" vertex="1" parent="1">
          <mxGeometry x="160" y="500" width="120" height="60" as="geometry" />
        </mxCell>
        <mxCell id="G5gJPwNIRfqYZjKYW6PN-16" value="Display in FE" style="whiteSpace=wrap;html=1;rounded=0;" vertex="1" parent="1">
          <mxGeometry x="160" y="640" width="120" height="60" as="geometry" />
        </mxCell>
      </root>
    </mxGraphModel>
  </diagram>
</mxfile>
